<mxfile host="app.diagrams.net" agent="Mozilla/5.0 (Windows NT 10.0; Win64; x64) AppleWebKit/537.36 (KHTML, like Gecko) Chrome/129.0.0.0 Safari/537.36" version="24.7.16" pages="3">
  <diagram name="5.1" id="Mr0xnsLeHrge3Ov5JhIK">
    <mxGraphModel dx="762" dy="605" grid="1" gridSize="10" guides="1" tooltips="1" connect="1" arrows="1" fold="1" page="1" pageScale="1" pageWidth="850" pageHeight="1100" math="0" shadow="0">
      <root>
        <mxCell id="0" />
        <mxCell id="1" parent="0" />
        <mxCell id="a-36ykIPJQ-xDA0gI0yC-2" value="START" style="strokeWidth=2;html=1;shape=mxgraph.flowchart.terminator;whiteSpace=wrap;" vertex="1" parent="1">
          <mxGeometry x="360" y="20" width="100" height="40" as="geometry" />
        </mxCell>
        <mxCell id="a-36ykIPJQ-xDA0gI0yC-5" value="INITIALIZE evenCount = 0, sumEven = 0, productOdd = 1, i = 1" style="shape=hexagon;perimeter=hexagonPerimeter2;whiteSpace=wrap;html=1;fixedSize=1;size=20;" vertex="1" parent="1">
          <mxGeometry x="285" y="100" width="250" height="50" as="geometry" />
        </mxCell>
        <mxCell id="a-36ykIPJQ-xDA0gI0yC-6" value="" style="endArrow=classic;html=1;rounded=0;exitX=0.5;exitY=1;exitDx=0;exitDy=0;exitPerimeter=0;" edge="1" parent="1" source="a-36ykIPJQ-xDA0gI0yC-2" target="a-36ykIPJQ-xDA0gI0yC-5">
          <mxGeometry width="50" height="50" relative="1" as="geometry">
            <mxPoint x="400" y="340" as="sourcePoint" />
            <mxPoint x="450" y="290" as="targetPoint" />
          </mxGeometry>
        </mxCell>
        <mxCell id="a-36ykIPJQ-xDA0gI0yC-7" value="i &amp;lt;= 10&lt;div&gt;?&lt;/div&gt;" style="rhombus;whiteSpace=wrap;html=1;" vertex="1" parent="1">
          <mxGeometry x="370" y="190" width="80" height="80" as="geometry" />
        </mxCell>
        <mxCell id="a-36ykIPJQ-xDA0gI0yC-8" value="" style="endArrow=classic;html=1;rounded=0;exitX=0.5;exitY=1;exitDx=0;exitDy=0;entryX=0.5;entryY=0;entryDx=0;entryDy=0;" edge="1" parent="1" source="a-36ykIPJQ-xDA0gI0yC-5" target="a-36ykIPJQ-xDA0gI0yC-7">
          <mxGeometry width="50" height="50" relative="1" as="geometry">
            <mxPoint x="400" y="340" as="sourcePoint" />
            <mxPoint x="450" y="290" as="targetPoint" />
          </mxGeometry>
        </mxCell>
        <mxCell id="a-36ykIPJQ-xDA0gI0yC-9" value="YES" style="text;html=1;align=center;verticalAlign=middle;whiteSpace=wrap;rounded=0;" vertex="1" parent="1">
          <mxGeometry x="410" y="270" width="60" height="30" as="geometry" />
        </mxCell>
        <mxCell id="a-36ykIPJQ-xDA0gI0yC-10" value="NO" style="text;html=1;align=center;verticalAlign=middle;whiteSpace=wrap;rounded=0;" vertex="1" parent="1">
          <mxGeometry x="300" y="200" width="60" height="30" as="geometry" />
        </mxCell>
        <mxCell id="a-36ykIPJQ-xDA0gI0yC-11" value="" style="endArrow=classic;html=1;rounded=0;exitX=0;exitY=0;exitDx=0;exitDy=0;" edge="1" parent="1" source="a-36ykIPJQ-xDA0gI0yC-9">
          <mxGeometry width="50" height="50" relative="1" as="geometry">
            <mxPoint x="400" y="340" as="sourcePoint" />
            <mxPoint x="410" y="310" as="targetPoint" />
          </mxGeometry>
        </mxCell>
        <mxCell id="a-36ykIPJQ-xDA0gI0yC-12" value="GET num" style="shape=parallelogram;perimeter=parallelogramPerimeter;whiteSpace=wrap;html=1;fixedSize=1;" vertex="1" parent="1">
          <mxGeometry x="350" y="310" width="120" height="30" as="geometry" />
        </mxCell>
        <mxCell id="a-36ykIPJQ-xDA0gI0yC-13" value="num % 2 == 0&lt;div&gt;?&lt;/div&gt;" style="rhombus;whiteSpace=wrap;html=1;" vertex="1" parent="1">
          <mxGeometry x="340" y="380" width="140" height="80" as="geometry" />
        </mxCell>
        <mxCell id="a-36ykIPJQ-xDA0gI0yC-14" value="" style="endArrow=classic;html=1;rounded=0;entryX=0.5;entryY=0;entryDx=0;entryDy=0;exitX=0.5;exitY=1;exitDx=0;exitDy=0;" edge="1" parent="1" source="a-36ykIPJQ-xDA0gI0yC-12" target="a-36ykIPJQ-xDA0gI0yC-13">
          <mxGeometry width="50" height="50" relative="1" as="geometry">
            <mxPoint x="330" y="340" as="sourcePoint" />
            <mxPoint x="380" y="290" as="targetPoint" />
          </mxGeometry>
        </mxCell>
        <mxCell id="a-36ykIPJQ-xDA0gI0yC-15" value="" style="endArrow=classic;html=1;rounded=0;exitX=1;exitY=0.5;exitDx=0;exitDy=0;entryX=1;entryY=1;entryDx=0;entryDy=0;" edge="1" parent="1" source="a-36ykIPJQ-xDA0gI0yC-13" target="a-36ykIPJQ-xDA0gI0yC-16">
          <mxGeometry width="50" height="50" relative="1" as="geometry">
            <mxPoint x="330" y="470" as="sourcePoint" />
            <mxPoint x="560" y="420" as="targetPoint" />
          </mxGeometry>
        </mxCell>
        <mxCell id="a-36ykIPJQ-xDA0gI0yC-16" value="NO" style="text;html=1;align=center;verticalAlign=middle;whiteSpace=wrap;rounded=0;" vertex="1" parent="1">
          <mxGeometry x="480" y="390" width="60" height="30" as="geometry" />
        </mxCell>
        <mxCell id="a-36ykIPJQ-xDA0gI0yC-17" value="productOdd *= num" style="rounded=0;whiteSpace=wrap;html=1;" vertex="1" parent="1">
          <mxGeometry x="540" y="400" width="120" height="40" as="geometry" />
        </mxCell>
        <mxCell id="a-36ykIPJQ-xDA0gI0yC-18" value="evenCount++" style="rounded=0;whiteSpace=wrap;html=1;" vertex="1" parent="1">
          <mxGeometry x="350" y="490" width="120" height="30" as="geometry" />
        </mxCell>
        <mxCell id="a-36ykIPJQ-xDA0gI0yC-19" value="sumEven += num" style="rounded=0;whiteSpace=wrap;html=1;" vertex="1" parent="1">
          <mxGeometry x="350" y="550" width="120" height="30" as="geometry" />
        </mxCell>
        <mxCell id="a-36ykIPJQ-xDA0gI0yC-20" value="" style="endArrow=classic;html=1;rounded=0;entryX=0.5;entryY=0;entryDx=0;entryDy=0;exitX=0.5;exitY=1;exitDx=0;exitDy=0;" edge="1" parent="1" source="a-36ykIPJQ-xDA0gI0yC-13" target="a-36ykIPJQ-xDA0gI0yC-18">
          <mxGeometry width="50" height="50" relative="1" as="geometry">
            <mxPoint x="330" y="470" as="sourcePoint" />
            <mxPoint x="380" y="420" as="targetPoint" />
          </mxGeometry>
        </mxCell>
        <mxCell id="a-36ykIPJQ-xDA0gI0yC-21" value="" style="endArrow=classic;html=1;rounded=0;entryX=0.5;entryY=0;entryDx=0;entryDy=0;exitX=0.5;exitY=1;exitDx=0;exitDy=0;" edge="1" parent="1" source="a-36ykIPJQ-xDA0gI0yC-18" target="a-36ykIPJQ-xDA0gI0yC-19">
          <mxGeometry width="50" height="50" relative="1" as="geometry">
            <mxPoint x="330" y="470" as="sourcePoint" />
            <mxPoint x="380" y="420" as="targetPoint" />
          </mxGeometry>
        </mxCell>
        <mxCell id="a-36ykIPJQ-xDA0gI0yC-24" value="i++" style="rounded=0;whiteSpace=wrap;html=1;" vertex="1" parent="1">
          <mxGeometry x="740" y="405" width="50" height="30" as="geometry" />
        </mxCell>
        <mxCell id="a-36ykIPJQ-xDA0gI0yC-25" value="" style="endArrow=classic;html=1;rounded=0;entryX=0;entryY=0.5;entryDx=0;entryDy=0;exitX=1;exitY=0.5;exitDx=0;exitDy=0;" edge="1" parent="1" source="a-36ykIPJQ-xDA0gI0yC-17" target="a-36ykIPJQ-xDA0gI0yC-24">
          <mxGeometry width="50" height="50" relative="1" as="geometry">
            <mxPoint x="470" y="470" as="sourcePoint" />
            <mxPoint x="520" y="420" as="targetPoint" />
          </mxGeometry>
        </mxCell>
        <mxCell id="a-36ykIPJQ-xDA0gI0yC-26" value="" style="endArrow=classic;html=1;rounded=0;entryX=0.5;entryY=1;entryDx=0;entryDy=0;" edge="1" parent="1" target="a-36ykIPJQ-xDA0gI0yC-24">
          <mxGeometry width="50" height="50" relative="1" as="geometry">
            <mxPoint x="760" y="565" as="sourcePoint" />
            <mxPoint x="750" y="439.9999999999999" as="targetPoint" />
          </mxGeometry>
        </mxCell>
        <mxCell id="a-36ykIPJQ-xDA0gI0yC-27" value="" style="endArrow=none;html=1;rounded=0;exitX=1;exitY=0.5;exitDx=0;exitDy=0;" edge="1" parent="1" source="a-36ykIPJQ-xDA0gI0yC-19">
          <mxGeometry width="50" height="50" relative="1" as="geometry">
            <mxPoint x="470" y="470" as="sourcePoint" />
            <mxPoint x="760" y="565" as="targetPoint" />
          </mxGeometry>
        </mxCell>
        <mxCell id="a-36ykIPJQ-xDA0gI0yC-28" value="" style="endArrow=classic;html=1;rounded=0;" edge="1" parent="1">
          <mxGeometry width="50" height="50" relative="1" as="geometry">
            <mxPoint x="760" y="170" as="sourcePoint" />
            <mxPoint x="410" y="170" as="targetPoint" />
          </mxGeometry>
        </mxCell>
        <mxCell id="a-36ykIPJQ-xDA0gI0yC-29" value="" style="endArrow=none;html=1;rounded=0;exitX=0.5;exitY=0;exitDx=0;exitDy=0;" edge="1" parent="1" source="a-36ykIPJQ-xDA0gI0yC-24">
          <mxGeometry width="50" height="50" relative="1" as="geometry">
            <mxPoint x="760" y="400" as="sourcePoint" />
            <mxPoint x="760" y="170" as="targetPoint" />
          </mxGeometry>
        </mxCell>
        <mxCell id="a-36ykIPJQ-xDA0gI0yC-30" value="averageEven = sumEven / evenCount" style="rounded=0;whiteSpace=wrap;html=1;" vertex="1" parent="1">
          <mxGeometry x="125" y="210" width="130" height="40" as="geometry" />
        </mxCell>
        <mxCell id="a-36ykIPJQ-xDA0gI0yC-31" value="" style="endArrow=classic;html=1;rounded=0;entryX=1;entryY=0.5;entryDx=0;entryDy=0;exitX=0;exitY=0.5;exitDx=0;exitDy=0;" edge="1" parent="1" source="a-36ykIPJQ-xDA0gI0yC-7" target="a-36ykIPJQ-xDA0gI0yC-30">
          <mxGeometry width="50" height="50" relative="1" as="geometry">
            <mxPoint x="370" y="370" as="sourcePoint" />
            <mxPoint x="420" y="320" as="targetPoint" />
          </mxGeometry>
        </mxCell>
        <mxCell id="a-36ykIPJQ-xDA0gI0yC-32" value="DISPLAY averageEven" style="shape=parallelogram;perimeter=parallelogramPerimeter;whiteSpace=wrap;html=1;fixedSize=1;" vertex="1" parent="1">
          <mxGeometry x="110" y="300" width="160" height="35" as="geometry" />
        </mxCell>
        <mxCell id="a-36ykIPJQ-xDA0gI0yC-33" value="DISPLAY productOdd" style="shape=parallelogram;perimeter=parallelogramPerimeter;whiteSpace=wrap;html=1;fixedSize=1;" vertex="1" parent="1">
          <mxGeometry x="110" y="380" width="160" height="35" as="geometry" />
        </mxCell>
        <mxCell id="a-36ykIPJQ-xDA0gI0yC-34" value="" style="endArrow=classic;html=1;rounded=0;exitX=0.5;exitY=1;exitDx=0;exitDy=0;entryX=0.5;entryY=0;entryDx=0;entryDy=0;" edge="1" parent="1" source="a-36ykIPJQ-xDA0gI0yC-30" target="a-36ykIPJQ-xDA0gI0yC-32">
          <mxGeometry width="50" height="50" relative="1" as="geometry">
            <mxPoint x="250" y="370" as="sourcePoint" />
            <mxPoint x="300" y="320" as="targetPoint" />
          </mxGeometry>
        </mxCell>
        <mxCell id="a-36ykIPJQ-xDA0gI0yC-35" value="" style="endArrow=classic;html=1;rounded=0;exitX=0.5;exitY=1;exitDx=0;exitDy=0;entryX=0.5;entryY=0;entryDx=0;entryDy=0;" edge="1" parent="1" source="a-36ykIPJQ-xDA0gI0yC-32" target="a-36ykIPJQ-xDA0gI0yC-33">
          <mxGeometry width="50" height="50" relative="1" as="geometry">
            <mxPoint x="250" y="370" as="sourcePoint" />
            <mxPoint x="300" y="320" as="targetPoint" />
          </mxGeometry>
        </mxCell>
        <mxCell id="a-36ykIPJQ-xDA0gI0yC-36" value="STOP" style="strokeWidth=2;html=1;shape=mxgraph.flowchart.terminator;whiteSpace=wrap;" vertex="1" parent="1">
          <mxGeometry x="140" y="450" width="100" height="40" as="geometry" />
        </mxCell>
        <mxCell id="a-36ykIPJQ-xDA0gI0yC-37" value="" style="endArrow=classic;html=1;rounded=0;exitX=0.5;exitY=1;exitDx=0;exitDy=0;entryX=0.5;entryY=0;entryDx=0;entryDy=0;entryPerimeter=0;" edge="1" parent="1" source="a-36ykIPJQ-xDA0gI0yC-33" target="a-36ykIPJQ-xDA0gI0yC-36">
          <mxGeometry width="50" height="50" relative="1" as="geometry">
            <mxPoint x="250" y="370" as="sourcePoint" />
            <mxPoint x="300" y="320" as="targetPoint" />
          </mxGeometry>
        </mxCell>
      </root>
    </mxGraphModel>
  </diagram>
  <diagram id="k6rrSb_O8_rl7PI__aFv" name="5.2">
    <mxGraphModel dx="1290" dy="603" grid="1" gridSize="10" guides="1" tooltips="1" connect="1" arrows="1" fold="1" page="1" pageScale="1" pageWidth="850" pageHeight="1100" math="0" shadow="0">
      <root>
        <mxCell id="0" />
        <mxCell id="1" parent="0" />
      </root>
    </mxGraphModel>
  </diagram>
  <diagram id="pTAfat-3RWKGqNRK5E26" name="5.3">
    <mxGraphModel dx="2693" dy="861" grid="1" gridSize="10" guides="1" tooltips="1" connect="1" arrows="1" fold="1" page="1" pageScale="1" pageWidth="850" pageHeight="1100" math="0" shadow="0">
      <root>
        <mxCell id="0" />
        <mxCell id="1" parent="0" />
        <mxCell id="ogYobrO88srODcdLfygR-1" value="START" style="strokeWidth=2;html=1;shape=mxgraph.flowchart.start_1;whiteSpace=wrap;" vertex="1" parent="1">
          <mxGeometry x="375" y="20" width="100" height="40" as="geometry" />
        </mxCell>
        <mxCell id="ogYobrO88srODcdLfygR-2" value="" style="endArrow=classic;html=1;rounded=0;exitX=0.5;exitY=1;exitDx=0;exitDy=0;exitPerimeter=0;" edge="1" parent="1" source="ogYobrO88srODcdLfygR-1">
          <mxGeometry width="50" height="50" relative="1" as="geometry">
            <mxPoint x="370" y="200" as="sourcePoint" />
            <mxPoint x="425" y="110" as="targetPoint" />
          </mxGeometry>
        </mxCell>
        <mxCell id="ogYobrO88srODcdLfygR-3" value="GET operation" style="shape=parallelogram;perimeter=parallelogramPerimeter;whiteSpace=wrap;html=1;fixedSize=1;" vertex="1" parent="1">
          <mxGeometry x="-170" y="240" width="170" height="30" as="geometry" />
        </mxCell>
        <mxCell id="ogYobrO88srODcdLfygR-4" value="operation&lt;div&gt;?&lt;/div&gt;" style="rhombus;whiteSpace=wrap;html=1;" vertex="1" parent="1">
          <mxGeometry x="-137" y="310" width="105" height="80" as="geometry" />
        </mxCell>
        <mxCell id="ogYobrO88srODcdLfygR-5" value="" style="endArrow=classic;html=1;rounded=0;exitX=0.5;exitY=1;exitDx=0;exitDy=0;entryX=0.5;entryY=0;entryDx=0;entryDy=0;" edge="1" parent="1" source="ogYobrO88srODcdLfygR-3" target="ogYobrO88srODcdLfygR-4">
          <mxGeometry width="50" height="50" relative="1" as="geometry">
            <mxPoint x="-140" y="330" as="sourcePoint" />
            <mxPoint x="-90" y="280" as="targetPoint" />
          </mxGeometry>
        </mxCell>
        <mxCell id="ogYobrO88srODcdLfygR-6" value="X" style="ellipse;whiteSpace=wrap;html=1;aspect=fixed;" vertex="1" parent="1">
          <mxGeometry x="-95" y="420" width="20" height="20" as="geometry" />
        </mxCell>
        <mxCell id="ogYobrO88srODcdLfygR-8" value="" style="endArrow=classic;html=1;rounded=0;exitX=0.5;exitY=1;exitDx=0;exitDy=0;entryX=0.5;entryY=0;entryDx=0;entryDy=0;" edge="1" parent="1" source="ogYobrO88srODcdLfygR-4" target="ogYobrO88srODcdLfygR-6">
          <mxGeometry width="50" height="50" relative="1" as="geometry">
            <mxPoint x="-140" y="470" as="sourcePoint" />
            <mxPoint x="-90" y="420" as="targetPoint" />
          </mxGeometry>
        </mxCell>
        <mxCell id="ogYobrO88srODcdLfygR-9" value="" style="endArrow=none;html=1;rounded=0;" edge="1" parent="1">
          <mxGeometry width="50" height="50" relative="1" as="geometry">
            <mxPoint x="-550" y="430" as="sourcePoint" />
            <mxPoint x="-95" y="429.5" as="targetPoint" />
          </mxGeometry>
        </mxCell>
        <mxCell id="ogYobrO88srODcdLfygR-12" value="" style="endArrow=classic;html=1;rounded=0;" edge="1" parent="1">
          <mxGeometry width="50" height="50" relative="1" as="geometry">
            <mxPoint x="-550" y="430" as="sourcePoint" />
            <mxPoint x="-550" y="490" as="targetPoint" />
          </mxGeometry>
        </mxCell>
        <mxCell id="ogYobrO88srODcdLfygR-13" value="&lt;b&gt;1&lt;/b&gt;" style="text;html=1;align=center;verticalAlign=middle;whiteSpace=wrap;rounded=0;" vertex="1" parent="1">
          <mxGeometry x="-570" y="440" width="60" height="30" as="geometry" />
        </mxCell>
        <mxCell id="ogYobrO88srODcdLfygR-14" value="GET base" style="shape=parallelogram;perimeter=parallelogramPerimeter;whiteSpace=wrap;html=1;fixedSize=1;" vertex="1" parent="1">
          <mxGeometry x="-615" y="490" width="120" height="30" as="geometry" />
        </mxCell>
        <mxCell id="ogYobrO88srODcdLfygR-15" value="GET power" style="shape=parallelogram;perimeter=parallelogramPerimeter;whiteSpace=wrap;html=1;fixedSize=1;" vertex="1" parent="1">
          <mxGeometry x="-615" y="550" width="120" height="30" as="geometry" />
        </mxCell>
        <mxCell id="ogYobrO88srODcdLfygR-16" value="" style="endArrow=classic;html=1;rounded=0;entryX=0.5;entryY=0;entryDx=0;entryDy=0;" edge="1" parent="1" source="ogYobrO88srODcdLfygR-14" target="ogYobrO88srODcdLfygR-15">
          <mxGeometry width="50" height="50" relative="1" as="geometry">
            <mxPoint x="-345" y="470" as="sourcePoint" />
            <mxPoint x="-295" y="420" as="targetPoint" />
          </mxGeometry>
        </mxCell>
        <mxCell id="ogYobrO88srODcdLfygR-17" value="result = powerProblemSolver(base, power)" style="shape=process;whiteSpace=wrap;html=1;backgroundOutline=1;" vertex="1" parent="1">
          <mxGeometry x="-650" y="620" width="190" height="60" as="geometry" />
        </mxCell>
        <mxCell id="ogYobrO88srODcdLfygR-18" value="" style="endArrow=classic;html=1;rounded=0;exitX=0.5;exitY=1;exitDx=0;exitDy=0;entryX=0.5;entryY=0;entryDx=0;entryDy=0;" edge="1" parent="1" source="ogYobrO88srODcdLfygR-15" target="ogYobrO88srODcdLfygR-17">
          <mxGeometry width="50" height="50" relative="1" as="geometry">
            <mxPoint x="-345" y="600" as="sourcePoint" />
            <mxPoint x="-295" y="550" as="targetPoint" />
          </mxGeometry>
        </mxCell>
        <mxCell id="ogYobrO88srODcdLfygR-19" value="DISPLAY result" style="shape=parallelogram;perimeter=parallelogramPerimeter;whiteSpace=wrap;html=1;fixedSize=1;" vertex="1" parent="1">
          <mxGeometry x="-625" y="710" width="140" height="50" as="geometry" />
        </mxCell>
        <mxCell id="ogYobrO88srODcdLfygR-20" value="" style="endArrow=classic;html=1;rounded=0;exitX=0.5;exitY=1;exitDx=0;exitDy=0;entryX=0.5;entryY=0;entryDx=0;entryDy=0;" edge="1" parent="1" source="ogYobrO88srODcdLfygR-17" target="ogYobrO88srODcdLfygR-19">
          <mxGeometry width="50" height="50" relative="1" as="geometry">
            <mxPoint x="-345" y="730" as="sourcePoint" />
            <mxPoint x="-295" y="680" as="targetPoint" />
          </mxGeometry>
        </mxCell>
        <mxCell id="ogYobrO88srODcdLfygR-21" value="" style="endArrow=classic;html=1;rounded=0;" edge="1" parent="1">
          <mxGeometry width="50" height="50" relative="1" as="geometry">
            <mxPoint x="-320.5" y="430" as="sourcePoint" />
            <mxPoint x="-320.5" y="490" as="targetPoint" />
          </mxGeometry>
        </mxCell>
        <mxCell id="ogYobrO88srODcdLfygR-22" value="&lt;b&gt;2&lt;/b&gt;" style="text;html=1;align=center;verticalAlign=middle;whiteSpace=wrap;rounded=0;" vertex="1" parent="1">
          <mxGeometry x="-340" y="440" width="60" height="30" as="geometry" />
        </mxCell>
        <mxCell id="ogYobrO88srODcdLfygR-23" value="GET num" style="shape=parallelogram;perimeter=parallelogramPerimeter;whiteSpace=wrap;html=1;fixedSize=1;" vertex="1" parent="1">
          <mxGeometry x="-380" y="490" width="120" height="30" as="geometry" />
        </mxCell>
        <mxCell id="ogYobrO88srODcdLfygR-24" value="result = factorialProblemSolver(num)" style="shape=process;whiteSpace=wrap;html=1;backgroundOutline=1;" vertex="1" parent="1">
          <mxGeometry x="-421" y="560" width="202" height="60" as="geometry" />
        </mxCell>
        <mxCell id="ogYobrO88srODcdLfygR-25" value="" style="endArrow=classic;html=1;rounded=0;entryX=0.5;entryY=0;entryDx=0;entryDy=0;exitX=0.5;exitY=1;exitDx=0;exitDy=0;" edge="1" parent="1" source="ogYobrO88srODcdLfygR-23" target="ogYobrO88srODcdLfygR-24">
          <mxGeometry width="50" height="50" relative="1" as="geometry">
            <mxPoint x="-460" y="600" as="sourcePoint" />
            <mxPoint x="-410" y="550" as="targetPoint" />
          </mxGeometry>
        </mxCell>
        <mxCell id="ogYobrO88srODcdLfygR-26" value="DISPLAY result" style="shape=parallelogram;perimeter=parallelogramPerimeter;whiteSpace=wrap;html=1;fixedSize=1;" vertex="1" parent="1">
          <mxGeometry x="-390" y="710" width="140" height="50" as="geometry" />
        </mxCell>
        <mxCell id="ogYobrO88srODcdLfygR-27" value="" style="endArrow=classic;html=1;rounded=0;entryX=0.5;entryY=0;entryDx=0;entryDy=0;exitX=0.5;exitY=1;exitDx=0;exitDy=0;" edge="1" parent="1" source="ogYobrO88srODcdLfygR-24" target="ogYobrO88srODcdLfygR-26">
          <mxGeometry width="50" height="50" relative="1" as="geometry">
            <mxPoint x="-310" y="530" as="sourcePoint" />
            <mxPoint x="-310" y="570" as="targetPoint" />
          </mxGeometry>
        </mxCell>
        <mxCell id="ogYobrO88srODcdLfygR-28" value="" style="endArrow=none;html=1;rounded=0;" edge="1" parent="1">
          <mxGeometry width="50" height="50" relative="1" as="geometry">
            <mxPoint x="-75" y="429.5" as="sourcePoint" />
            <mxPoint x="270" y="429.5" as="targetPoint" />
          </mxGeometry>
        </mxCell>
        <mxCell id="ogYobrO88srODcdLfygR-33" value="GET a, b, c" style="shape=parallelogram;perimeter=parallelogramPerimeter;whiteSpace=wrap;html=1;fixedSize=1;" vertex="1" parent="1">
          <mxGeometry x="-144.5" y="490" width="120" height="30" as="geometry" />
        </mxCell>
        <mxCell id="ogYobrO88srODcdLfygR-34" value="rootsProblemSolver(a, b, c)" style="shape=process;whiteSpace=wrap;html=1;backgroundOutline=1;" vertex="1" parent="1">
          <mxGeometry x="-185.5" y="560" width="202" height="60" as="geometry" />
        </mxCell>
        <mxCell id="ogYobrO88srODcdLfygR-35" value="" style="endArrow=classic;html=1;rounded=0;entryX=0.5;entryY=0;entryDx=0;entryDy=0;exitX=0.5;exitY=1;exitDx=0;exitDy=0;" edge="1" source="ogYobrO88srODcdLfygR-33" target="ogYobrO88srODcdLfygR-34" parent="1">
          <mxGeometry width="50" height="50" relative="1" as="geometry">
            <mxPoint x="-224.5" y="600" as="sourcePoint" />
            <mxPoint x="-174.5" y="550" as="targetPoint" />
          </mxGeometry>
        </mxCell>
        <mxCell id="ogYobrO88srODcdLfygR-37" value="" style="endArrow=classic;html=1;rounded=0;entryX=0.5;entryY=0;entryDx=0;entryDy=0;exitX=0.5;exitY=1;exitDx=0;exitDy=0;" edge="1" source="ogYobrO88srODcdLfygR-34" target="ogYobrO88srODcdLfygR-46" parent="1">
          <mxGeometry width="50" height="50" relative="1" as="geometry">
            <mxPoint x="-74.5" y="530" as="sourcePoint" />
            <mxPoint x="-84.5" y="710" as="targetPoint" />
          </mxGeometry>
        </mxCell>
        <mxCell id="ogYobrO88srODcdLfygR-38" value="" style="endArrow=classic;html=1;rounded=0;" edge="1" parent="1">
          <mxGeometry width="50" height="50" relative="1" as="geometry">
            <mxPoint x="-86" y="440" as="sourcePoint" />
            <mxPoint x="-86" y="490" as="targetPoint" />
          </mxGeometry>
        </mxCell>
        <mxCell id="ogYobrO88srODcdLfygR-39" value="&lt;b&gt;3&lt;/b&gt;" style="text;html=1;align=center;verticalAlign=middle;whiteSpace=wrap;rounded=0;" vertex="1" parent="1">
          <mxGeometry x="-103.5" y="440" width="60" height="30" as="geometry" />
        </mxCell>
        <mxCell id="ogYobrO88srODcdLfygR-41" value="&lt;b&gt;4&lt;/b&gt;" style="text;html=1;align=center;verticalAlign=middle;whiteSpace=wrap;rounded=0;" vertex="1" parent="1">
          <mxGeometry x="70" y="440" width="60" height="30" as="geometry" />
        </mxCell>
        <mxCell id="ogYobrO88srODcdLfygR-43" value="" style="endArrow=classic;html=1;rounded=0;" edge="1" parent="1">
          <mxGeometry width="50" height="50" relative="1" as="geometry">
            <mxPoint x="270" y="430" as="sourcePoint" />
            <mxPoint x="270" y="690" as="targetPoint" />
          </mxGeometry>
        </mxCell>
        <mxCell id="ogYobrO88srODcdLfygR-44" value="DISPLAY &quot;Invalid Operation. Please choose again.&quot;" style="shape=parallelogram;perimeter=parallelogramPerimeter;whiteSpace=wrap;html=1;fixedSize=1;" vertex="1" parent="1">
          <mxGeometry x="200" y="690" width="140" height="50" as="geometry" />
        </mxCell>
        <mxCell id="ogYobrO88srODcdLfygR-45" value="&lt;b&gt;Default&lt;/b&gt;" style="text;html=1;align=center;verticalAlign=middle;whiteSpace=wrap;rounded=0;" vertex="1" parent="1">
          <mxGeometry x="270" y="430" width="60" height="30" as="geometry" />
        </mxCell>
        <mxCell id="ogYobrO88srODcdLfygR-46" value="X" style="ellipse;whiteSpace=wrap;html=1;aspect=fixed;" vertex="1" parent="1">
          <mxGeometry x="-95" y="820" width="20" height="20" as="geometry" />
        </mxCell>
        <mxCell id="ogYobrO88srODcdLfygR-48" value="" style="endArrow=classic;html=1;rounded=0;" edge="1" parent="1">
          <mxGeometry width="50" height="50" relative="1" as="geometry">
            <mxPoint x="-560" y="830" as="sourcePoint" />
            <mxPoint x="-95" y="830" as="targetPoint" />
          </mxGeometry>
        </mxCell>
        <mxCell id="ogYobrO88srODcdLfygR-49" value="" style="endArrow=none;html=1;rounded=0;exitX=0.5;exitY=1;exitDx=0;exitDy=0;" edge="1" parent="1" source="ogYobrO88srODcdLfygR-19">
          <mxGeometry width="50" height="50" relative="1" as="geometry">
            <mxPoint x="-370" y="690" as="sourcePoint" />
            <mxPoint x="-555" y="830" as="targetPoint" />
          </mxGeometry>
        </mxCell>
        <mxCell id="ogYobrO88srODcdLfygR-50" value="" style="endArrow=classic;html=1;rounded=0;exitX=0.5;exitY=1;exitDx=0;exitDy=0;" edge="1" parent="1" source="ogYobrO88srODcdLfygR-26">
          <mxGeometry width="50" height="50" relative="1" as="geometry">
            <mxPoint x="-370" y="690" as="sourcePoint" />
            <mxPoint x="-320" y="830" as="targetPoint" />
          </mxGeometry>
        </mxCell>
        <mxCell id="ogYobrO88srODcdLfygR-51" value="" style="endArrow=classic;html=1;rounded=0;entryX=1;entryY=0.5;entryDx=0;entryDy=0;" edge="1" parent="1" target="ogYobrO88srODcdLfygR-46">
          <mxGeometry width="50" height="50" relative="1" as="geometry">
            <mxPoint x="270" y="830" as="sourcePoint" />
            <mxPoint x="-20" y="640" as="targetPoint" />
          </mxGeometry>
        </mxCell>
        <mxCell id="ogYobrO88srODcdLfygR-52" value="" style="endArrow=none;html=1;rounded=0;exitX=0.5;exitY=1;exitDx=0;exitDy=0;" edge="1" parent="1" source="ogYobrO88srODcdLfygR-44">
          <mxGeometry width="50" height="50" relative="1" as="geometry">
            <mxPoint x="-70" y="690" as="sourcePoint" />
            <mxPoint x="270" y="830" as="targetPoint" />
          </mxGeometry>
        </mxCell>
        <mxCell id="ogYobrO88srODcdLfygR-53" value="" style="endArrow=classic;html=1;rounded=0;" edge="1" parent="1">
          <mxGeometry width="50" height="50" relative="1" as="geometry">
            <mxPoint x="80" y="430" as="sourcePoint" />
            <mxPoint x="80" y="830" as="targetPoint" />
          </mxGeometry>
        </mxCell>
        <mxCell id="ogYobrO88srODcdLfygR-54" value="" style="endArrow=classic;html=1;rounded=0;exitX=0.5;exitY=1;exitDx=0;exitDy=0;" edge="1" parent="1" source="ogYobrO88srODcdLfygR-46">
          <mxGeometry width="50" height="50" relative="1" as="geometry">
            <mxPoint x="-210" y="900" as="sourcePoint" />
            <mxPoint x="-85" y="910" as="targetPoint" />
          </mxGeometry>
        </mxCell>
        <mxCell id="ogYobrO88srODcdLfygR-55" value="STOP" style="strokeWidth=2;html=1;shape=mxgraph.flowchart.start_1;whiteSpace=wrap;" vertex="1" parent="1">
          <mxGeometry x="375.5" y="820" width="100" height="40" as="geometry" />
        </mxCell>
        <mxCell id="ogYobrO88srODcdLfygR-56" value="while(1)" style="rhombus;whiteSpace=wrap;html=1;" vertex="1" parent="1">
          <mxGeometry x="320" y="280" width="80" height="80" as="geometry" />
        </mxCell>
      </root>
    </mxGraphModel>
  </diagram>
</mxfile>
